Coordinates
version=1
nRows=43
nColumns=12
inDegrees=yes

Units are S.I. units (second, meters, Newtons, ...)
Angles are in degrees

endheader
time	SC_y	SC_z	SC_x	AC_y	AC_z	AC_x	GH_y	GH_z	GH_yy	EL_x	PS_y
       0.0              -57.98          10.72          18.16          34.32          7.155          -2.74         -54.83          76.07          88.68          128.8          70.52
   0.02435              -57.98          10.72          18.17          34.33          7.155          -2.74         -54.83          76.07          88.67          128.8          70.53
   0.04869              -57.98          10.73          18.18          34.34          7.156          -2.74         -54.82          76.07          88.67          128.8          70.54
   0.07304              -57.98          10.73          18.19          34.34          7.156         -2.739         -54.82          76.07          88.66          128.8          70.55
   0.09738              -57.97          10.73           18.2          34.35          7.157         -2.739         -54.81          76.07          88.65          128.8          70.56
    0.1217              -57.97          10.74          18.22          34.35          7.157         -2.739          -54.8          76.07          88.65          128.8          70.57
    0.1461              -57.97          10.74          18.23          34.36          7.157         -2.738          -54.8          76.08          88.64          128.8          70.58
    0.1704              -57.97          10.75          18.24          34.37          7.158         -2.738         -54.79          76.08          88.63          128.8          70.59
    0.1948              -57.96          10.75          18.26          34.38          7.158         -2.737         -54.78          76.08          88.62          128.8          70.61
    0.2191              -57.96          10.76          18.27          34.39          7.159         -2.737         -54.77          76.08          88.61          128.7          70.62
    0.2435              -57.95          10.76          18.29          34.39          7.159         -2.736         -54.76          76.08           88.6          128.7          70.64
    0.2678              -57.95          10.77           18.3          34.41           7.16         -2.736         -54.75          76.09          88.59          128.7          70.66
    0.2921              -57.95          10.77          18.32          34.42          7.161         -2.735         -54.74          76.09          88.58          128.7          70.68
    0.3165              -57.94          10.78          18.34          34.43          7.162         -2.735         -54.73          76.09          88.57          128.7           70.7
    0.3408              -57.94          10.79          18.37          34.44          7.162         -2.734         -54.72          76.09          88.56          128.7          70.72
    0.3652              -57.93           10.8          18.39          34.45          7.163         -2.733          -54.7           76.1          88.54          128.6          70.74
    0.3895              -57.93          10.81          18.42          34.47          7.164         -2.732         -54.69           76.1          88.53          128.6          70.77
    0.4139              -57.92          10.82          18.45          34.49          7.165         -2.732         -54.67           76.1          88.51          128.6           70.8
    0.4382              -57.91          10.83          18.48           34.5          7.166         -2.731         -54.66          76.11          88.49          128.6          70.83
    0.4626               -57.9          10.84          18.51          34.52          7.167         -2.729         -54.64          76.11          88.47          128.5          70.86
    0.4869               -57.9          10.85          18.55          34.54          7.169         -2.728         -54.61          76.12          88.45          128.5           70.9
    0.5113              -57.89          10.87          18.59          34.57           7.17         -2.727         -54.59          76.12          88.42          128.5          70.94
    0.5356              -57.88          10.88          18.64          34.59          7.172         -2.726         -54.57          76.13           88.4          128.4          70.98
    0.5599              -57.87           10.9          18.69          34.62          7.174         -2.724         -54.54          76.13          88.37          128.4          71.03
    0.5843              -57.85          10.92          18.74          34.65          7.176         -2.722         -54.51          76.14          88.33          128.4          71.09
    0.6086              -57.84          10.94          18.81          34.69          7.178          -2.72         -54.47          76.15           88.3          128.3          71.15
     0.633              -57.82          10.97          18.88          34.73           7.18         -2.718         -54.43          76.16          88.26          128.2          71.22
    0.6573               -57.8          10.99          18.96          34.78          7.183         -2.716         -54.39          76.17          88.21          128.2           71.3
    0.6817              -57.78          11.03          19.04          34.83          7.186         -2.713         -54.34          76.18          88.16          128.1          71.39
     0.706              -57.76          11.06          19.15          34.88           7.19          -2.71         -54.28          76.19           88.1          128.0          71.49
    0.7304              -57.74           11.1          19.26          34.95          7.194         -2.706         -54.21          76.21          88.03          127.9           71.6
    0.7547              -57.71          11.15          19.39          35.03          7.199         -2.702         -54.14          76.22          87.95          127.8          71.73
    0.7791              -57.67           11.2          19.55          35.11          7.204         -2.697         -54.05          76.24          87.86          127.7          71.88
    0.8034              -57.63          11.26          19.73          35.22           7.21         -2.692         -53.95          76.27          87.75          127.5          72.06
    0.8278              -57.58          11.34          19.94          35.33          7.218         -2.685         -53.84          76.29          87.63          127.4          72.26
    0.8521              -57.53          11.42          20.18          35.48          7.226         -2.678          -53.7          76.32          87.49          127.2          72.51
    0.8764              -57.46          11.52          20.47          35.64          7.237         -2.669         -53.53          76.36          87.31          126.9          72.79
    0.9008              -57.39          11.65          20.82          35.84          7.249         -2.658         -53.34          76.41          87.11          126.7          73.14
    0.9251              -57.29          11.79          21.25          36.08          7.264         -2.645          -53.1          76.46          86.86          126.3          73.56
    0.9495              -57.17          11.97          21.77          36.38          7.282         -2.629         -52.81          76.53          86.55          125.9          74.07
    0.9738              -57.03           12.2          22.41          36.74          7.305         -2.609         -52.45          76.61          86.17          125.4           74.7
    0.9982              -56.85          12.48           23.2           37.2          7.333         -2.584          -52.0          76.71           85.7          124.7          75.48
     1.023              -56.63          12.83          24.21          37.77          7.368         -2.553         -51.43          76.83          85.11          123.9          76.47
